<?xml version="1.0" encoding="UTF-8" standalone="no"?>
<!-- Created with Inkscape (http://www.inkscape.org/) -->

<svg
   width="140.92917mm"
   height="169.08466mm"
   viewBox="0 0 140.92917 169.08466"
   version="1.1"
   id="svg5"
   xml:space="preserve"
   inkscape:export-filename="tesseractLogo.svg"
   inkscape:export-xdpi="96"
   inkscape:export-ydpi="96"
   sodipodi:docname="tesseractLogo.svg"
   inkscape:version="1.3 (0e150ed6c4, 2023-07-21)"
   xmlns:inkscape="http://www.inkscape.org/namespaces/inkscape"
   xmlns:sodipodi="http://sodipodi.sourceforge.net/DTD/sodipodi-0.dtd"
   xmlns="http://www.w3.org/2000/svg"
   xmlns:svg="http://www.w3.org/2000/svg"><sodipodi:namedview
     id="namedview7"
     pagecolor="#ffffff"
     bordercolor="#666666"
     borderopacity="1.0"
     inkscape:showpageshadow="2"
     inkscape:pageopacity="0.0"
     inkscape:pagecheckerboard="0"
     inkscape:deskcolor="#d1d1d1"
     inkscape:document-units="mm"
     showgrid="false"
     inkscape:zoom="0.58914645"
     inkscape:cx="29.703989"
     inkscape:cy="535.5205"
     inkscape:window-width="1920"
     inkscape:window-height="1004"
     inkscape:window-x="0"
     inkscape:window-y="36"
     inkscape:window-maximized="1"
     inkscape:current-layer="layer1" /><defs
     id="defs2" /><g
     inkscape:label="Layer 1"
     inkscape:groupmode="layer"
     id="layer1"
     transform="translate(-33.610757,-27.534593)"><path
       style="fill:#ffffff;stroke:none;stroke-width:0.264583"
       d="m 103.01391,196.35465 c -0.0899,-0.14552 -0.52445,-0.26458 -0.96559,-0.26458 -0.54091,0 -2.065008,-0.76346 -4.680748,-2.34468 -5.03513,-3.04377 -14.216213,-8.62809 -16.578663,-10.08384 -1.01865,-0.62769 -2.50693,-1.51904 -3.3073,-1.98078 -0.80036,-0.46173 -2.5863,-1.53334 -3.96875,-2.38135 -3.852542,-2.36319 -14.511622,-8.78766 -21.431252,-12.9171 -3.41974,-2.0408 -7.70599,-4.61906 -9.525,-5.72946 -1.81901,-1.1104 -4.58715,-2.78886 -6.15142,-3.72991 -2.84414,-1.71101 -2.84414,-1.71101 -2.77813,-44.83477 0.066,-43.123757 0.066,-43.123757 6.01914,-46.719467 3.27422,-1.97764 8.75109,-5.29839 12.17083,-7.37945 3.41974,-2.08106 8.12271,-4.94054 10.45104,-6.3544 2.32834,-1.41385 6.0788,-3.69826 8.33438,-5.07644 2.25557,-1.37819 7.970572,-4.86935 12.700002,-7.75813 4.72942,-2.88878 10.683873,-6.52588 13.232093,-8.082436 5.166138,-3.1557 6.111468,-3.47775 8.839928,-3.01156 1.04631,0.17877 2.21679,0.85285 15.10194,8.697226 21.1066,12.84953 36.79489,22.34604 49.26064,29.81867 4.81064,2.88375 4.81064,2.88375 4.80221,38.396127 -0.005,19.5318 -0.0858,38.96091 -0.18043,43.1758 -0.172,7.66342 -0.172,7.66342 -15.79921,17.06562 -31.91718,19.20316 -35.03863,21.08758 -40.99363,24.74792 -9.9533,6.11797 -10.59782,6.48241 -11.46436,6.48241 -0.44414,0 -0.88112,0.11906 -0.97105,0.26458 -0.0899,0.14552 -0.56619,0.26458 -1.05834,0.26458 -0.49214,0 -0.96839,-0.11906 -1.05833,-0.26458 z m 14.86359,-17.89541 c 5.21294,-3.14852 12.51417,-7.53698 16.22495,-9.75213 3.71078,-2.21515 8.35422,-4.99882 10.31875,-6.18592 1.96453,-1.1871 7.2913,-4.38888 11.83726,-7.11506 4.54596,-2.72618 8.26565,-5.01622 8.26597,-5.08898 0.001,-0.2235 -3.69666,-2.42726 -3.91833,-2.33529 -0.11444,0.0475 -2.28481,1.34843 -4.82305,2.891 -2.53823,1.54256 -6.69857,4.02974 -9.24518,5.52706 -2.54662,1.49732 -5.7613,3.40003 -7.14375,4.22825 -2.73927,1.64108 -14.89601,8.87262 -19.97604,11.88291 -1.8785,1.11315 -3.4745,1.88178 -3.90845,1.88229 -0.73344,7.9e-4 -0.73344,7.9e-4 -0.66146,-4.92896 0.072,-4.92982 0.072,-4.92982 5.09907,-7.95529 2.7649,-1.66401 7.76552,-4.62905 11.1125,-6.58898 12.8343,-7.51554 20.60969,-12.19248 20.6949,-12.44809 0.0487,-0.14619 -0.23046,-0.41117 -0.62041,-0.58884 -0.38996,-0.17768 -1.31577,-0.71242 -2.05737,-1.18831 -0.7416,-0.47589 -2.41993,-1.5011 -3.72962,-2.27824 -3.37209,-2.00092 -8.12482,-4.88804 -10.45104,-6.34864 -1.0914,-0.68528 -4.63351,-2.82738 -7.87135,-4.76023 -5.29952,-3.16357 -5.88646,-3.58362 -5.88176,-4.20922 0.005,-0.73279 0.0765,-0.78429 5.02186,-3.64442 1.09141,-0.6312 2.26037,-1.14853 2.59769,-1.14961 0.54708,-0.002 7.04487,3.71347 15.26169,8.72615 1.60073,0.97653 4.69635,2.82194 6.87916,4.10091 2.18282,1.27898 6.3329,3.74488 9.22242,5.47977 2.88952,1.73489 5.30107,3.10694 5.35902,3.049 0.0579,-0.0579 0.075,-12.8036 0.038,-28.3237 -0.0673,-28.218347 -0.0673,-28.218347 -2.84547,-26.545537 -1.52797,0.92004 -5.57609,3.3213 -8.99583,5.33614 -3.41974,2.01483 -8.00365,4.73523 -10.18646,6.04534 -2.18281,1.31011 -4.20762,2.50929 -4.49958,2.66484 -0.7241,0.3858 -8.78372,5.178527 -20.73093,12.327837 -9.95907,5.9596 -9.95907,5.9596 -10.02623,39.48906 -0.0369,18.44121 -0.0158,33.52947 0.0469,33.52947 0.0627,0 4.37921,-2.57607 9.59216,-5.72458 z m -3.08963,-39.1223 c 0,-6.48229 0,-6.48229 0.64648,-6.48229 0.35556,0 2.7951,1.27992 5.42119,2.84427 6.33982,3.77659 6.34422,3.41308 -0.0882,7.27604 -2.60487,1.56435 -5.01589,2.84427 -5.35781,2.84427 -0.62167,0 -0.62167,0 -0.62167,-6.48229 z m 37.96771,-24.61169 c -6.08427,-3.62534 -6.47952,-4.02983 -4.97576,-5.09207 1.97659,-1.39626 10.73546,-6.41186 11.19717,-6.41186 0.51171,0 0.52546,0.19381 0.52546,7.40833 0,7.40833 0,7.40833 -0.59531,7.40732 -0.32742,-5.3e-4 -3.09563,-1.49083 -6.15156,-3.31172 z M 99.442032,150.5952 c 0,-33.32404 0,-33.32404 -0.8599,-33.96342 -0.47294,-0.35166 -2.52677,-1.62869 -4.56406,-2.83784 -2.03729,-1.20916 -5.013853,-2.99602 -6.614583,-3.97082 -3.5677,-2.17263 -6.30037,-3.805 -14.816672,-8.85079 -3.63802,-2.155467 -7.9838,-4.752607 -9.65729,-5.771417 -1.67349,-1.01881 -3.81661,-2.29041 -4.7625,-2.82578 -1.77894,-1.00688 -4.64518,-2.69671 -11.57552,-6.82454 -4.0349,-2.40324 -4.0349,-2.40324 -4.0349,25.757697 0,15.48852 0.0455,28.16094 0.10121,28.16094 0.0557,0 8.04388,-4.7625 17.75157,-10.58333 10.94811,-6.56459 17.906952,-10.58333 18.326082,-10.58333 0.57071,0 5.80276,2.92215 7.27896,4.06538 1.02649,0.79495 0.58204,1.3036 -3.19224,3.65338 -2.01039,1.25162 -4.30235,2.65417 -5.09323,3.11677 -0.79089,0.4626 -2.64083,1.57737 -4.111,2.47726 -1.470162,0.89989 -6.025202,3.65754 -10.122302,6.1281 -4.09711,2.47057 -7.41145,4.60545 -7.3652,4.74418 0.0462,0.13872 4.66081,2.96157 10.25459,6.27298 29.334635,17.36551 26.442405,15.11915 26.442405,20.53752 0,4.83151 0,4.83151 -0.70113,4.83151 -0.69485,0 -1.34511,-0.34512 -7.236373,-3.84067 -1.67349,-0.99295 -3.99521,-2.36476 -5.15938,-3.04845 -1.16416,-0.6837 -4.0812,-2.40862 -6.482292,-3.83316 -2.40109,-1.42454 -5.49672,-3.23953 -6.87917,-4.03329 -1.38244,-0.79378 -2.87073,-1.67304 -3.30729,-1.95394 -0.43656,-0.28089 -4.17495,-2.52367 -8.30753,-4.98394 -8.47355,-5.04462 -7.38429,-4.73393 -10.24231,-2.92142 -1.20311,0.76298 -1.20311,0.76298 -0.4723,1.2457 1.59025,1.0504 55.018285,33.12615 55.203915,33.14191 0.10914,0.009 0.19844,-14.97897 0.19844,-33.30719 z m -11.377083,-6.92554 c -1.96453,-1.17854 -4.20213,-2.51499 -4.97245,-2.9699 -2.28845,-1.35146 -2.10923,-1.60535 3.51724,-4.98281 2.96413,-1.77931 5.037253,-2.85949 5.490103,-2.86057 0.72761,-0.002 0.72761,-0.002 0.72761,6.48056 0,6.48229 0,6.48229 -0.59532,6.4789 -0.32742,-0.002 -2.20265,-0.96765 -4.167183,-2.14618 z M 48.642027,110.76194 c 0,-7.27604 0,-7.27604 0.72761,-7.26574 0.40018,0.006 1.38244,0.41514 2.18281,0.90994 0.80036,0.4948 2.40771,1.46279 3.57187,2.15108 1.16417,0.68829 2.92786,1.77114 3.91931,2.40633 2.83001,1.81307 2.78457,1.88342 -3.76162,5.82437 -2.96921,1.78754 -5.67788,3.25006 -6.01927,3.25006 -0.62071,0 -0.62071,0 -0.62071,-7.27604 z m 60.060423,-4.62219 c 9.36847,-5.61163 21.93421,-13.070377 32.54375,-19.317277 8.5718,-5.04707 10.05417,-5.95352 10.05417,-6.14801 0,-0.10654 -0.38696,-0.39032 -0.8599,-0.63062 -0.47294,-0.2403 -2.28864,-1.27312 -4.03489,-2.29517 -1.74625,-1.02204 -4.60375,-2.68872 -6.35,-3.70373 -2.95907,-1.71997 -7.93814,-4.64077 -15.21355,-8.92454 -1.67348,-0.98535 -4.53098,-2.66046 -6.34999,-3.72247 -1.81902,-1.06201 -3.39477,-2.05769 -3.50168,-2.21262 -0.10692,-0.15493 -0.19621,-2.45459 -0.19844,-5.11034 -0.004,-4.79436 7e-5,-4.82865 0.57587,-4.82865 0.31896,0 1.42029,0.49343 2.4474,1.0965 4.09962,2.40713 12.29747,7.25862 19.19768,11.36119 4.00182,2.37932 7.69276,4.55227 8.20208,4.82879 0.50932,0.27651 2.05714,1.18529 3.43958,2.0195 2.86102,1.72642 10.4183,6.13478 11.30453,6.59423 0.49876,0.25857 0.81264,0.17903 2.05052,-0.51958 0.80388,-0.45368 1.52224,-0.92299 1.59635,-1.04291 0.13603,-0.2201 -1.14301,-1.04232 -7.41077,-4.76393 -3.12636,-1.85634 -18.21985,-10.96493 -25.4,-15.32834 -1.60073,-0.97277 -4.45823,-2.70569 -6.35,-3.85093 -4.51972,-2.73616 -7.06613,-4.28218 -12.10349,-7.34847 -4.166,-2.53588 -4.166,-2.53588 -4.23334,25.68611 -0.0673,28.22199 -0.0673,28.22199 -1.91942,29.34465 -1.01865,0.61747 -2.09021,1.11878 -2.38125,1.11403 -0.29104,-0.005 -1.3626,-0.52559 -2.38125,-1.15743 -1.852088,-1.1488 -1.852088,-1.1488 -1.984378,-29.23477 -0.13229,-28.08597 -0.13229,-28.08597 -3.04271,-26.31592 -7.223583,4.39324 -16.907873,10.28708 -22.489583,13.68715 -11.710822,7.13357 -19.619152,11.92881 -24.473962,14.83988 -2.69213,1.61428 -4.89479,3.0903 -4.89479,3.28005 0,0.18976 0.66576,0.71382 1.47947,1.16457 1.47947,0.81955 1.47947,0.81955 4.10104,-0.7124 11.49616,-6.71795 26.707432,-15.69915 34.823952,-20.56111 3.88191,-2.32535 6.813193,-3.91627 7.215733,-3.91627 0.67794,0 0.67794,0 0.60596,4.94645 -0.072,4.94646 -0.072,4.94646 -6.157403,8.59804 -3.34698,2.00837 -6.97839,4.16929 -8.06979,4.80205 -1.09141,0.63276 -4.78235,2.79741 -8.202092,4.81034 -3.41974,2.01294 -7.6597,4.50197 -9.42215,5.53119 -1.76244,1.02921 -3.46989,2.05183 -3.79432,2.27247 -0.65683,0.44671 -2.62403,-0.7957 20.095642,12.69161 4.72943,2.80758 12.64165,7.520087 17.582723,10.472257 7.725438,4.61576 9.059568,5.32799 9.524998,5.085 0.29768,-0.15541 2.26765,-1.31667 4.3777,-2.58057 z M 87.535129,88.980733 c -5.99847,-3.58907 -5.82018,-3.46159 -5.82018,-4.1617 0,-0.53899 0.72398,-1.06173 4.91712,-3.5503 2.70442,-1.60503 5.204733,-2.91824 5.556253,-2.91824 0.63913,0 0.63913,0 0.63913,6.48229 0,6.48229 0,6.48229 -0.72761,6.46305 -0.41712,-0.011 -2.364953,-0.99892 -4.564713,-2.3151 z m 27.252741,-4.14795 c 0,-6.26614 0.0173,-6.48229 0.5196,-6.48229 0.40922,0 5.85753,3.11873 9.733,5.57137 0.35925,0.22735 0.59531,0.64017 0.59531,1.04103 0,0.57936 -0.6087,1.0278 -4.76207,3.50823 -2.66001,1.58858 -5.05424,2.84395 -5.42396,2.84395 -0.66188,0 -0.66188,0 -0.66188,-6.48229 z"
       id="path252" /></g></svg>
